<svg class="metro-ikon-tekst" version="1.1" xmlns="http://www.w3.org/2000/svg" xmlns:xlink="http://www.w3.org/1999/xlink" x="0px" y="0px" viewBox="0 0 466 321" xml:space="preserve"><g> <circle style="fill:#11789C;" cx="239" cy="150" r="150"/> <rect y="205" style="fill:#11789C;" width="466" height="116"/> <path style="fill:none;stroke:#FFFFFF;stroke-width:4;" d="M347.906,221C361.241,200.588,369,176.201,369,150 c0-71.797-58.204-130.001-130-130.001S109,78.203,109,150c0,26.201,7.759,50.588,21.094,71H17.333v87.333h433.333V221H347.906z"/> <g> <path style="fill-rule:evenodd;clip-rule:evenodd;fill:#FFFFFF;" d="M267.43,48.339c-5.026,24.146-24.551,41.381-29.815,65.592 c-1.17,5.383-5.733,6.432-10.116,6.364c-11.449-0.179-22.729-0.653-32.162-9.232c-6.233-5.675-13.104-4.175-17.252,3.031 c-2.836,4.93-6.124,8.458-12.124,8.44c-1.384-0.004-3.425,0.415-3.301,2.301c0.131,1.982,2.253,1.692,3.603,1.727 c8.021,0.197,16.044,0.301,24.064,0.354c11.438,0.072,17.981,7.437,23.464,16.393c1.262,2.062,0.702,4.221-0.302,6.102 c-8.892,16.651-15.971,34.276-25.775,50.435c-0.665,1.099-1.41,2.14-0.662,3.305c1.027,1.594,2.807,1.645,4.438,1.504 c9.669-0.831,17.548-6.021,24.422-12.219c10.464-9.433,20.069-19.857,30.169-29.724c9.087-8.879,12.813-8.625,20.409,1.462 c3.328,4.419,6.729,5.079,10.917,1.54c0.229-0.191,0.469-0.376,0.699-0.564c13.529-10.942,13.623-12.619-0.856-20.999 c-7.455-4.316-10.144-9.179-6.768-17.854c4.209-10.809,8.877-21.557,9.49-33.536c0.744-14.506-2.859-27.975-8.632-40.983 C270.723,50.387,270,48.674,267.43,48.339z"/> </g> <g> <path style="fill:#FDFFFF;" d="M62.565,272.12c0,3.677-1.333,6.574-3.999,8.691c-2.666,2.117-6.374,3.176-11.125,3.176 c-4.377,0-8.25-0.817-11.617-2.452v-8.022c2.768,1.226,5.111,2.089,7.029,2.591c1.917,0.501,3.671,0.752,5.261,0.752 c1.908,0,3.372-0.362,4.392-1.086c1.019-0.725,1.529-1.802,1.529-3.231c0-0.799-0.225-1.509-0.674-2.131 c-0.449-0.622-1.108-1.222-1.978-1.797c-0.87-0.576-2.643-1.495-5.317-2.758c-2.507-1.17-4.387-2.294-5.64-3.371 s-2.254-2.33-3.002-3.761c-0.748-1.43-1.122-3.101-1.122-5.014c0-3.603,1.229-6.436,3.69-8.496 c2.459-2.062,5.859-3.093,10.2-3.093c2.132,0,4.167,0.251,6.103,0.753c1.936,0.501,3.96,1.207,6.075,2.116l-2.806,6.714 c-2.188-0.892-3.999-1.514-5.429-1.866c-1.431-0.353-2.839-0.529-4.223-0.529c-1.646,0-2.909,0.381-3.788,1.142 c-0.879,0.762-1.319,1.755-1.319,2.981c0,0.762,0.178,1.425,0.533,1.991c0.355,0.566,0.921,1.114,1.698,1.644 c0.776,0.529,2.614,1.481,5.514,2.855c3.834,1.82,6.463,3.645,7.885,5.474C61.854,267.222,62.565,269.465,62.565,272.12z"/> <path style="fill:#FDFFFF;" d="M102.999,283.43h-9.877l-10.747-17.159l-3.676,2.618v14.541h-8.698v-40.727h8.698v18.637 l3.423-4.792l11.112-13.845h9.652l-14.31,18.023L102.999,283.43z"/> <path style="fill:#FDFFFF;" d="M116.86,267.802v15.628h-8.698v-40.727h11.953c5.574,0,9.699,1.008,12.375,3.022 c2.675,2.016,4.012,5.075,4.012,9.179c0,2.396-0.664,4.527-1.992,6.394s-3.208,3.329-5.64,4.388 c6.173,9.155,10.195,15.07,12.065,17.744h-9.652l-9.793-15.628H116.86z M116.86,260.782h2.807c2.749,0,4.779-0.455,6.089-1.365 c1.309-0.909,1.964-2.34,1.964-4.289c0-1.932-0.669-3.306-2.006-4.123c-1.338-0.817-3.41-1.226-6.216-1.226h-2.638V260.782z"/> <path style="fill:#FDFFFF;" d="M146.099,283.43v-40.727h8.698v40.727H146.099z"/> <path style="fill:#FDFFFF;" d="M188.525,242.703h8.783l-13.946,40.727h-9.483l-13.918-40.727h8.782l7.717,24.235 c0.431,1.431,0.874,3.097,1.333,5c0.458,1.904,0.743,3.228,0.855,3.97c0.206-1.708,0.907-4.698,2.104-8.97L188.525,242.703z"/> <path style="fill:#FDFFFF;" d="M226.097,283.43h-23.626v-40.727h23.626v7.076h-14.928v8.941h13.89v7.076h-13.89v10.502h14.928 V283.43z"/> <path style="fill:#FDFFFF;" d="M252.024,283.43l-9.877-31.951h-0.253c0.355,6.5,0.533,10.836,0.533,13.009v18.942h-7.772v-40.727 h11.841l9.709,31.144h0.168l10.298-31.144h11.842v40.727h-8.109v-19.276c0-0.91,0.014-1.959,0.042-3.148 c0.028-1.188,0.154-4.346,0.379-9.471h-0.253l-10.578,31.896H252.024z"/> <path style="fill:#FDFFFF;" d="M312.465,283.43h-23.626v-40.727h23.626v7.076h-14.928v8.941h13.89v7.076h-13.89v10.502h14.928 V283.43z"/> <path style="fill:#FDFFFF;" d="M336.849,283.43h-8.698v-33.539h-11.14v-7.188h30.979v7.188h-11.141V283.43z"/> <path style="fill:#FDFFFF;" d="M363.001,267.802v15.628h-8.698v-40.727h11.953c5.574,0,9.699,1.008,12.375,3.022 c2.675,2.016,4.012,5.075,4.012,9.179c0,2.396-0.664,4.527-1.992,6.394s-3.208,3.329-5.64,4.388 c6.173,9.155,10.195,15.07,12.065,17.744h-9.652l-9.793-15.628H363.001z M363.001,260.782h2.807c2.749,0,4.779-0.455,6.089-1.365 c1.309-0.909,1.964-2.34,1.964-4.289c0-1.932-0.669-3.306-2.006-4.123c-1.338-0.817-3.41-1.226-6.216-1.226h-2.638V260.782z"/> <path style="fill:#FDFFFF;" d="M429.475,263.011c0,6.741-1.684,11.923-5.051,15.544s-8.193,5.433-14.479,5.433 c-6.286,0-11.112-1.812-14.479-5.433s-5.051-8.821-5.051-15.6s1.688-11.955,5.065-15.53c3.376-3.574,8.216-5.362,14.521-5.362 c6.304,0,11.126,1.802,14.465,5.404C427.805,251.07,429.475,256.251,429.475,263.011z M399.535,263.011 c0,4.551,0.869,7.977,2.609,10.279c1.739,2.303,4.339,3.454,7.801,3.454c6.939,0,10.41-4.577,10.41-13.733 c0-9.174-3.452-13.761-10.354-13.761c-3.461,0-6.07,1.156-7.829,3.468C400.414,255.03,399.535,258.461,399.535,263.011z"/> </g></g></svg>
