<svg class="metro-ikon" version="1.1" xmlns="http://www.w3.org/2000/svg" xmlns:xlink="http://www.w3.org/1999/xlink" x="0px" y="0px" viewBox="0 0 300 300" xml:space="preserve"> <circle style="fill:#11789C;" cx="150" cy="150" r="150"/> <circle style="fill:none;stroke:#FFFFFF;stroke-width:4;" cx="150" cy="150" r="130"/> <path style="fill-rule:evenodd;clip-rule:evenodd;fill:#FFFFFF;" d="M182.928,62.672c-5.229,25.117-25.539,43.046-31.016,68.231 c-1.217,5.6-5.965,6.69-10.523,6.62c-11.91-0.186-23.645-0.679-33.456-9.604c-6.484-5.902-13.632-4.342-17.946,3.154 c-2.95,5.127-6.371,8.798-12.611,8.78c-1.44-0.004-3.563,0.431-3.435,2.393c0.136,2.062,2.344,1.761,3.748,1.796 c8.344,0.205,16.689,0.313,25.033,0.368c11.898,0.075,18.705,7.735,24.407,17.052c1.312,2.146,0.731,4.392-0.313,6.348 c-9.25,17.322-16.614,35.655-26.812,52.465c-0.692,1.142-1.468,2.225-0.689,3.437c1.069,1.659,2.92,1.711,4.617,1.565 c10.059-0.865,18.254-6.264,25.405-12.711c10.885-9.812,20.877-20.656,31.382-30.919c9.453-9.236,13.33-8.973,21.231,1.521 c3.462,4.596,7.001,5.282,11.356,1.602c0.238-0.2,0.487-0.392,0.728-0.588c14.073-11.382,14.171-13.127-0.891-21.844 c-7.756-4.489-10.553-9.549-7.041-18.572c4.379-11.243,9.234-22.424,9.873-34.885c0.773-15.091-2.975-29.101-8.979-42.633 C186.354,64.802,185.602,63.02,182.928,62.672z"/></svg>
